<svg xmlns="http://www.w3.org/2000/svg" viewBox="0 0 64 64" width="64" height="64">
<defs><filter id="g" x="-60%" y="-60%" width="220%" height="220%"><feGaussianBlur stdDeviation="1.5" result="b"></feGaussianBlur><feMerge><feMergeNode in="b"></feMergeNode><feMergeNode in="SourceGraphic"></feMergeNode></feMerge></filter></defs>
<g filter="url(#g)" fill="none" stroke="#8bd8ff" stroke-width="3" stroke-linecap="round" stroke-linejoin="round">
<circle cx="32" cy="32" r="16" stroke-width="2" opacity=".35"></circle><circle cx="32" cy="32" r="3" fill="#8bd8ff" stroke="none"></circle><path d="M32 12.8 L35.2 16 L32 19.2 L28.8 16 Z" fill="#8bd8ff" stroke="none"></path><path d="M45.85640646055102 20.8 L49.056406460551024 24 L45.85640646055102 27.2 L42.65640646055102 24 Z" fill="#8bd8ff" stroke="none"></path><path d="M45.85640646055102 36.8 L49.056406460551024 40 L45.85640646055102 43.2 L42.65640646055102 40 Z" fill="#8bd8ff" stroke="none"></path><path d="M32 44.8 L35.2 48 L32 51.2 L28.8 48 Z" fill="#8bd8ff" stroke="none"></path><path d="M18.14359353944898 36.8 L21.343593539448978 40 L18.14359353944898 43.2 L14.94359353944898 40 Z" fill="#8bd8ff" stroke="none"></path><path d="M18.143593539448982 20.8 L21.34359353944898 24 L18.143593539448982 27.2 L14.943593539448983 24 Z" fill="#8bd8ff" stroke="none"></path>
</g></svg>