<svg xmlns="http://www.w3.org/2000/svg" viewBox="0 0 64 64" width="64" height="64">
<defs><filter id="g" x="-60%" y="-60%" width="220%" height="220%"><feGaussianBlur stdDeviation="1.5" result="b"></feGaussianBlur><feMerge><feMergeNode in="b"></feMergeNode><feMergeNode in="SourceGraphic"></feMergeNode></feMerge></filter></defs>
<g filter="url(#g)" fill="none" stroke="#ffe58a" stroke-width="3" stroke-linecap="round" stroke-linejoin="round">
<circle cx="32" cy="32" r="9" fill="#4d4529"></circle><circle cx="32" cy="32" r="9"></circle><line x1="49.0" y1="32.0" x2="55.0" y2="32.0" stroke-width="2"></line><line x1="46.7" y1="40.5" x2="51.9" y2="43.5" stroke-width="2"></line><line x1="40.5" y1="46.7" x2="43.5" y2="51.9" stroke-width="2"></line><line x1="32.0" y1="49.0" x2="32.0" y2="55.0" stroke-width="2"></line><line x1="23.5" y1="46.7" x2="20.5" y2="51.9" stroke-width="2"></line><line x1="17.3" y1="40.5" x2="12.1" y2="43.5" stroke-width="2"></line><line x1="15.0" y1="32.0" x2="9.0" y2="32.0" stroke-width="2"></line><line x1="17.3" y1="23.5" x2="12.1" y2="20.5" stroke-width="2"></line><line x1="23.5" y1="17.3" x2="20.5" y2="12.1" stroke-width="2"></line><line x1="32.0" y1="15.0" x2="32.0" y2="9.0" stroke-width="2"></line><line x1="40.5" y1="17.3" x2="43.5" y2="12.1" stroke-width="2"></line><line x1="46.7" y1="23.5" x2="51.9" y2="20.5" stroke-width="2"></line>
</g></svg>