<svg xmlns="http://www.w3.org/2000/svg" viewBox="0 0 64 64" width="64" height="64">
<defs><filter id="g" x="-60%" y="-60%" width="220%" height="220%"><feGaussianBlur stdDeviation="2.2" result="b"></feGaussianBlur><feMerge><feMergeNode in="b"></feMergeNode><feMergeNode in="SourceGraphic"></feMergeNode></feMerge></filter></defs>
<g filter="url(#g)" fill="none" stroke="#ffb0ee" stroke-width="3" stroke-linecap="round" stroke-linejoin="round">
<circle cx="24" cy="26" r="9" fill="#4d3547"></circle><circle cx="24" cy="26" r="9"></circle><path d="M33.0 26.0 L36.8 28.3" stroke-width="2.5"></path><path d="M30.4 32.4 L31.5 36.6" stroke-width="2.5"></path><path d="M24.0 35.0 L21.7 38.8" stroke-width="2.5"></path><path d="M17.6 32.4 L13.4 33.5" stroke-width="2.5"></path><path d="M15.0 26.0 L11.2 23.7" stroke-width="2.5"></path><path d="M17.6 19.6 L16.5 15.4" stroke-width="2.5"></path><path d="M24.0 17.0 L26.3 13.2" stroke-width="2.5"></path><path d="M30.4 19.6 L34.6 18.5" stroke-width="2.5"></path><circle cx="42" cy="42" r="7" fill="#4d3547"></circle><circle cx="42" cy="42" r="7"></circle><path d="M49.0 42.0 L52.8 43.9" stroke-width="2.5"></path><path d="M46.9 46.9 L48.3 51.0" stroke-width="2.5"></path><path d="M42.0 49.0 L40.1 52.8" stroke-width="2.5"></path><path d="M37.1 46.9 L33.0 48.3" stroke-width="2.5"></path><path d="M35.0 42.0 L31.2 40.1" stroke-width="2.5"></path><path d="M37.1 37.1 L35.7 33.0" stroke-width="2.5"></path><path d="M42.0 35.0 L43.9 31.2" stroke-width="2.5"></path><path d="M46.9 37.1 L51.0 35.7" stroke-width="2.5"></path>
</g></svg>